<svg class="svg-icon" style="width: 1em; height: 1em;vertical-align: middle;fill: currentColor;overflow: hidden;" viewBox="0 0 1024 1024" version="1.1" xmlns="http://www.w3.org/2000/svg"><path d="M534.57 551.33m-467.66 0a467.66 467.66 0 1 0 935.32 0 467.66 467.66 0 1 0-935.32 0Z" fill="#FFD632" /><path d="M926.55 296.18c32.74 63.88 51.21 136.28 51.21 212.99 0 258.28-209.38 467.66-467.66 467.66-164.14 0-308.53-84.57-391.98-212.51 77.48 151.2 234.88 254.67 416.45 254.67 258.28 0 467.66-209.38 467.66-467.66 0-94.14-27.82-181.78-75.68-255.15z" fill="#FDA738" /><path d="M512 1024c-69.12 0-136.17-13.54-199.3-40.24-60.97-25.79-115.72-62.7-162.74-109.72-47.02-47.02-83.93-101.77-109.72-162.74C13.54 648.17 0 581.12 0 512c0-54.75 8.6-108.63 25.55-160.15 1.36-4.13 5.81-6.38 9.94-5.02 4.13 1.36 6.38 5.81 5.02 9.94C24.08 406.71 15.75 458.93 15.75 512c0 273.63 222.61 496.25 496.25 496.25 273.63 0 496.25-222.62 496.25-496.25S785.63 15.75 512 15.75c-121.02 0-237.59 44.05-328.23 124.05a7.88 7.88 0 0 1-11.12-0.69 7.88 7.88 0 0 1 0.69-11.12C266.86 45.45 387.13 0 512 0c69.12 0 136.17 13.54 199.3 40.24 60.97 25.79 115.72 62.7 162.74 109.72 47.02 47.02 83.93 101.77 109.72 162.74 26.7 63.13 40.24 130.18 40.24 199.3s-13.54 136.17-40.24 199.3c-25.79 60.97-62.7 115.72-109.72 162.74S772.27 957.97 711.3 983.76C648.17 1010.46 581.12 1024 512 1024z" fill="" /><path d="M466.25 55.37c15.05-1.49 30.31-2.25 45.75-2.25 3.74 0 7.47 0.04 11.19 0.13" fill="#FFD632" /><path d="M466.24 63.37a8 8 0 0 1-7.95-7.21c-0.44-4.4 2.78-8.31 7.17-8.75 19.09-1.89 38.59-2.62 57.92-2.15 4.42 0.11 7.91 3.77 7.81 8.19-0.11 4.42-3.8 7.95-8.19 7.81-18.67-0.44-37.51 0.26-55.96 2.08-0.27 0.01-0.53 0.03-0.8 0.03z" fill="" /><path d="M268.72 122.83c50.29-31.5 107.12-53.53 167.99-63.58" fill="#FFD632" /><path d="M268.73 130.84c-2.66 0-5.27-1.33-6.79-3.75-2.35-3.74-1.21-8.68 2.53-11.03C316.93 83.2 374.44 61.43 435.4 51.37c4.35-0.72 8.48 2.23 9.2 6.59a8.003 8.003 0 0 1-6.59 9.2c-58.86 9.72-114.39 30.73-165.04 62.46a8.027 8.027 0 0 1-4.24 1.22z" fill="" /><path d="M89.53 222.67A515.093 515.093 0 0 1 137.37 163" fill="#FFD632" /><path d="M89.52 230.67c-1.56 0-3.14-0.46-4.52-1.4-3.64-2.5-4.57-7.48-2.07-11.12a524.624 524.624 0 0 1 48.59-60.6c3.01-3.23 8.07-3.41 11.31-0.4 3.23 3.01 3.41 8.07 0.4 11.31a509.077 509.077 0 0 0-47.1 58.74 8.008 8.008 0 0 1-6.61 3.47z" fill="" /><path d="M512 892.99c-1.07 0-2.13 0-3.2-0.01l0.08-10c5.9 0.05 11.88-0.04 17.76-0.27l0.39 9.99c-4.97 0.19-10.03 0.29-15.03 0.29z m-21.41-0.59c-6.04-0.33-12.16-0.82-18.17-1.44l1.03-9.95c5.86 0.6 11.81 1.08 17.7 1.4l-0.56 9.99z m54.64-0.84l-0.86-9.96c5.88-0.51 11.81-1.16 17.65-1.95l1.34 9.91c-6.01 0.81-12.1 1.48-18.13 2z m-90.9-2.9c-5.99-0.91-12.03-1.98-17.95-3.17l1.97-9.8c5.77 1.16 11.65 2.2 17.48 3.09l-1.5 9.88z m127.02-1.97l-1.81-9.83c5.8-1.07 11.64-2.29 17.38-3.63l2.28 9.74a371.71 371.71 0 0 1-17.85 3.72z m-162.76-5.23a380.69 380.69 0 0 1-17.57-4.88l2.91-9.57a372.94 372.94 0 0 0 17.1 4.75l-2.44 9.7z m198.26-3.08l-2.75-9.62c5.67-1.62 11.37-3.4 16.95-5.29l3.21 9.47c-5.74 1.95-11.59 3.78-17.41 5.44z m-233.18-7.54c-5.71-2.04-11.45-4.25-17.05-6.57l3.82-9.24c5.46 2.25 11.04 4.41 16.6 6.39l-3.37 9.42z m267.71-4.15l-3.66-9.31c5.46-2.15 10.95-4.46 16.32-6.88l4.1 9.12c-5.51 2.49-11.15 4.87-16.76 7.07z m-301.48-9.8c-5.48-2.58-10.98-5.33-16.33-8.17l4.69-8.83c5.21 2.77 10.56 5.44 15.9 7.96l-4.26 9.04z m334.66-5.12l-4.54-8.91c5.24-2.67 10.49-5.5 15.6-8.42l4.96 8.69c-5.25 2.99-10.64 5.9-16.02 8.64z m-366.9-12c-5.21-3.09-10.41-6.35-15.46-9.7l5.51-8.34c4.92 3.25 9.99 6.43 15.06 9.44l-5.11 8.6z m398.52-6.05l-5.37-8.44c4.97-3.16 9.93-6.48 14.74-9.87l5.76 8.17c-4.94 3.48-10.03 6.89-15.13 10.14z m-428.96-14.07a382.23 382.23 0 0 1-14.46-11.12l6.29-7.78c4.58 3.7 9.32 7.34 14.08 10.83l-5.91 8.07z m458.72-6.92l-6.14-7.89c4.64-3.62 9.26-7.4 13.74-11.24l6.51 7.59c-4.59 3.94-9.34 7.83-14.11 11.54z m-487.09-16c-4.52-4.02-9-8.21-13.33-12.44l7-7.15c4.21 4.12 8.58 8.2 12.98 12.12l-6.65 7.47z m514.74-7.74l-6.87-7.27c4.28-4.04 8.52-8.25 12.61-12.5l7.21 6.93c-4.19 4.37-8.55 8.69-12.95 12.84z m-540.8-17.76c-4.12-4.44-8.19-9.03-12.08-13.65l7.64-6.45c3.8 4.5 7.75 8.97 11.77 13.29l-7.33 6.81z m566.08-8.5l-7.53-6.58c3.88-4.43 7.71-9.02 11.37-13.64l7.83 6.22c-3.76 4.73-7.69 9.44-11.67 14z m-589.58-19.35c-3.68-4.8-7.28-9.76-10.73-14.73l8.22-5.69c3.35 4.84 6.87 9.67 10.45 14.34l-7.94 6.08z m612.26-9.22l-8.12-5.84c3.44-4.79 6.81-9.72 10.03-14.67l8.39 5.44c-3.3 5.09-6.77 10.16-10.3 15.07z m-632.99-20.72c-3.2-5.13-6.32-10.4-9.27-15.67l8.73-4.88c2.87 5.13 5.91 10.27 9.03 15.26l-8.49 5.29z m652.85-9.89l-8.64-5.04c2.97-5.09 5.86-10.33 8.58-15.57l8.87 4.61c-2.8 5.39-5.76 10.77-8.81 16z m-670.63-21.88c-2.69-5.4-5.29-10.95-7.72-16.48l9.15-4.03c2.37 5.38 4.9 10.78 7.52 16.04l-8.95 4.47z m687.48-10.51l-9.08-4.18a363.41 363.41 0 0 0 7.05-16.33l9.28 3.74c-2.29 5.62-4.72 11.27-7.25 16.77z m-702.12-22.79c-2.17-5.66-4.23-11.44-6.12-17.18l9.5-3.13c1.84 5.59 3.84 11.21 5.95 16.72l-9.33 3.59z m715.78-11.1l-9.44-3.29c1.93-5.55 3.76-11.24 5.43-16.9l9.59 2.83c-1.72 5.82-3.6 11.66-5.58 17.36z m-727.18-23.53c-1.61-5.83-3.1-11.78-4.43-17.69l9.76-2.2c1.29 5.75 2.75 11.54 4.32 17.22l-9.65 2.67z m737.49-11.44l-9.72-2.36c1.39-5.73 2.66-11.57 3.78-17.35l9.82 1.89c-1.15 5.94-2.45 11.94-3.88 17.82z m-745.49-24.13c-1.04-5.95-1.96-12.02-2.71-18.03l9.92-1.25c0.74 5.85 1.63 11.76 2.64 17.55l-9.85 1.73z m752.38-11.66l-9.9-1.42c0.84-5.83 1.54-11.76 2.1-17.63l9.96 0.94c-0.58 6.03-1.3 12.12-2.16 18.11z m-756.95-24.5c-0.47-6.02-0.8-12.15-0.99-18.2l10-0.3c0.18 5.9 0.5 11.87 0.96 17.73l-9.97 0.77z m760.39-11.79l-9.99-0.47c0.28-5.87 0.42-11.84 0.42-17.75h10c0 6.07-0.14 12.2-0.43 18.22z m-9.6-23.48c-0.08-5.91-0.31-11.88-0.67-17.75l9.98-0.61c0.37 6.02 0.6 12.15 0.68 18.22l-9.99 0.14z m-741.9-1l-10-0.17c0.1-6.05 0.35-12.18 0.73-18.21l9.98 0.64c-0.37 5.88-0.61 11.85-0.71 17.74z m739.73-34.44c-0.64-5.86-1.43-11.78-2.35-17.6l9.88-1.56c0.94 5.97 1.75 12.05 2.41 18.07l-9.94 1.09z m-737.47-0.99l-9.94-1.11c0.67-6.02 1.5-12.1 2.46-18.06l9.87 1.59c-0.93 5.8-1.73 11.72-2.39 17.58z m731.93-34.07c-1.2-5.77-2.55-11.58-4.02-17.29l9.68-2.5c1.51 5.86 2.9 11.84 4.13 17.76l-9.79 2.03z m-726.3-0.97l-9.79-2.06c1.24-5.92 2.65-11.89 4.18-17.75l9.68 2.53a364.08 364.08 0 0 0-4.07 17.28z m717.43-33.39c-1.75-5.62-3.65-11.28-5.67-16.82l9.4-3.42c2.07 5.69 4.03 11.5 5.82 17.28l-9.55 2.96z m-708.46-0.95l-9.54-2.99c1.81-5.79 3.79-11.61 5.89-17.31l9.39 3.45c-2.05 5.54-3.97 11.21-5.74 16.85z m696.33-32.36c-2.27-5.41-4.71-10.85-7.25-16.17l9.03-4.31c2.61 5.46 5.11 11.05 7.44 16.6l-9.22 3.88z m-684.06-1.04l-9.21-3.9c2.36-5.58 4.89-11.18 7.52-16.65l9.01 4.34c-2.56 5.32-5.02 10.78-7.32 16.21z m668.8-30.94c-2.78-5.18-5.73-10.36-8.77-15.41l8.57-5.15c3.12 5.19 6.14 10.51 9 15.83l-8.8 4.73z m-653.39-1.1l-8.79-4.76a381.26 381.26 0 0 1 9.08-15.84l8.55 5.18a385.98 385.98 0 0 0-8.84 15.42z m635.13-29.28c-3.26-4.88-6.69-9.77-10.2-14.51l8.04-5.94c3.6 4.87 7.13 9.89 10.48 14.9l-8.32 5.55z m-616.72-1.11l-8.3-5.58a385.05 385.05 0 0 1 10.55-14.89l8.02 5.97c-3.52 4.73-6.97 9.6-10.27 14.5z m595.63-27.42c-3.72-4.56-7.61-9.1-11.54-13.48l7.44-6.68c4.04 4.5 8.03 9.16 11.85 13.85l-7.75 6.31z m-574.4-1.07l-7.73-6.35c3.84-4.67 7.85-9.32 11.91-13.81l7.42 6.71c-3.96 4.37-7.86 8.9-11.6 13.45z m550.69-25.34c-4.14-4.19-8.44-8.34-12.78-12.33l6.77-7.36c4.45 4.1 8.87 8.36 13.12 12.66l-7.11 7.03z m-526.87-0.99l-7.09-7.05c4.27-4.29 8.7-8.53 13.16-12.61l6.74 7.38c-4.34 3.97-8.65 8.1-12.81 12.28z m500.74-23.05c-4.52-3.78-9.2-7.5-13.9-11.07l6.04-7.97c4.83 3.66 9.63 7.48 14.27 11.36l-6.41 7.68z m-474.53-0.89l-6.38-7.7c4.65-3.86 9.46-7.66 14.3-11.3l6.01 7.99c-4.72 3.55-9.4 7.25-13.93 11.01z m446.22-20.57c-4.86-3.33-9.87-6.59-14.9-9.69l5.25-8.51c5.16 3.18 10.3 6.53 15.3 9.96l-5.65 8.24z m-417.87-0.76l-5.62-8.27c5-3.4 10.15-6.73 15.3-9.88l5.22 8.53c-5.02 3.07-10.03 6.31-14.9 9.62z m387.63-17.91c-5.17-2.86-10.47-5.63-15.76-8.23l4.41-8.97c5.43 2.67 10.88 5.51 16.19 8.45l-4.84 8.75z m-357.39-0.6l-4.81-8.77c5.3-2.91 10.74-5.72 16.17-8.37l4.38 8.99c-5.29 2.58-10.58 5.32-15.74 8.15z m325.48-15.08c-5.42-2.35-10.97-4.6-16.49-6.68l3.53-9.36c5.67 2.14 11.36 4.44 16.94 6.86l-3.98 9.18z m-293.64-0.45l-3.95-9.19c5.55-2.38 11.23-4.66 16.88-6.78l3.5 9.37c-5.49 2.06-11.02 4.27-16.43 6.6z m260.35-12.1c-5.6-1.81-11.33-3.51-17.02-5.04l2.61-9.65c5.84 1.58 11.73 3.32 17.48 5.18l-3.07 9.51z m-227.14-0.31l-3.04-9.53c5.77-1.84 11.65-3.57 17.5-5.13l2.58 9.66a361.05 361.05 0 0 0-17.04 5z m192.88-8.95c-5.75-1.26-11.61-2.4-17.43-3.38l1.67-9.86c5.98 1.01 12 2.18 17.9 3.47l-2.14 9.77z m-158.59-0.22l-2.11-9.77c5.91-1.28 11.93-2.43 17.91-3.42l1.64 9.86c-5.82 0.97-11.69 2.09-17.44 3.33z m123.59-5.71c-5.84-0.7-11.79-1.27-17.67-1.7l0.72-9.97c6.04 0.44 12.15 1.02 18.15 1.75l-1.2 9.92z m-88.58-0.12l-1.17-9.93c6-0.71 12.11-1.28 18.15-1.7l0.69 9.98c-5.87 0.41-11.82 0.97-17.67 1.65z m53.18-2.44c-5.9-0.15-11.91-0.15-17.76-0.02l-0.22-10c6-0.13 12.18-0.13 18.23 0.02l-0.25 10z" fill="#FFFFFF" /><path d="M404.59 275.4c-11.31 5.32-21.49 11.78-30.53 19.37" fill="#1DCA5D" /><path d="M374.07 302.77a7.99 7.99 0 0 1-6.13-2.85c-2.84-3.38-2.4-8.43 0.98-11.27 9.53-8 20.38-14.9 32.27-20.49 4-1.88 8.76-0.17 10.64 3.83s0.17 8.76-3.83 10.64c-10.63 5-20.32 11.15-28.79 18.26a7.907 7.907 0 0 1-5.14 1.88z" fill="" /><path d="M692.07 506.83c-29.76-21.05-70.04-36.39-120.85-46-0.92 0-1.83-0.11-2.75-0.34-0.92-0.23-1.83-0.57-2.75-1.03-21.06-4.12-40.17-9.72-57.33-16.82-17.17-7.09-25.75-16.36-25.75-27.81 0.45-1.37 0.91-2.51 1.37-3.43v-1.37c0.45-0.91 0.69-1.6 0.69-2.06v-1.37c1.82-5.49 6.18-9.49 13.05-12.02 6.87-2.51 14.42-3.78 22.66-3.78 2.28 0 4.57 0.12 6.87 0.34 2.29 0.24 4.81 0.58 7.55 1.03 11.9 1.83 23 5.95 33.3 12.36 10.3 6.42 16.14 14.88 17.51 25.41l140.08 0.69c-6.87-54.01-27.7-90.86-62.48-110.55-28.96-16.38-59.99-26.56-93.08-30.58v-55.52H505v53.31c-47.52 1.53-84.62 13.48-111.27 35.88-28.61 24.03-44.97 51.84-49.09 83.43-0.46 1.83-0.8 3.78-1.03 5.84-0.24 2.06-0.34 4.24-0.34 6.52-0.46 2.3-0.8 4.7-1.03 7.21-0.24 2.52-0.34 4.92-0.34 7.21 0 48.06 19.11 81.6 57.33 100.59 38.22 19 79.99 34.22 125.31 45.66 3.66 0.92 7.09 1.72 10.3 2.4 3.2 0.69 6.41 1.49 9.61 2.4 3.66 0.92 7.32 1.83 10.99 2.75 3.66 0.92 7.32 1.84 10.99 2.75 7.32 2.3 13.15 5.49 17.51 9.61 4.35 4.12 7.21 8.48 8.58 13.05 0.45 0.92 0.79 2.06 1.03 3.43 0.23 1.37 0.34 2.75 0.34 4.12v2.06c-0.92 7.79-5.61 15-14.08 21.63-8.48 6.64-19.34 9.96-32.62 9.96-2.3 0-4.7-0.11-7.21-0.34-2.52-0.23-4.92-0.34-7.21-0.34-12.36-1.82-24.03-6.18-35.02-13.05-10.99-6.87-18.54-18.54-22.66-35.02l-140.07 0.69c0 54.93 21.29 94.07 63.86 117.42 32.34 17.73 67.71 28.72 106.12 32.99v59.41h65.16v-58.77c39.11-4 75.29-16.58 108.53-37.74 40.96-26.09 61.45-63.4 61.45-111.92v-6.18c-2.3-41.69-18.32-73.05-48.07-94.11z" fill="#1DCA5D" /><path d="M560.51 823.08h-68.86c-4.42 0-8-3.58-8-8v-55.69c-38.78-5.14-75.07-16.88-107.99-34.93-47.53-26.07-71.63-70.17-71.63-131.09 0-4.4 3.56-7.98 7.96-8l148.02-0.73h0.04a8 8 0 0 1 7.76 6.06c3.87 15.47 10.55 25.99 20.42 32.16 10.47 6.54 21.69 10.77 33.38 12.57 2.42 0.02 5.01 0.15 7.71 0.39 2.34 0.22 4.65 0.33 6.91 0.33 12.3 0 21.96-2.88 29.53-8.82 6.99-5.48 10.96-11.22 11.81-17.08v-1.66c0-0.99-0.09-2.02-0.26-3.06-0.16-0.92-0.35-1.34-0.38-1.42-0.19-0.39-0.35-0.79-0.47-1.21-1.04-3.46-3.37-6.92-6.91-10.28-3.63-3.43-8.74-6.22-15.17-8.26-3.81-0.95-7.6-1.89-11.4-2.85-3.86-0.96-7.73-1.92-11.61-2.9l-0.23-0.06c-3.25-0.92-6.5-1.74-9.65-2.41-3.66-0.78-7.41-1.66-11.16-2.6-48.22-12.17-93.31-28.6-134.03-48.85-43.15-21.43-65.03-59.61-65.03-113.46 0-2.73 0.13-5.54 0.4-8.36 0.24-2.62 0.59-5.21 1.06-7.67 0.02-2.48 0.16-4.84 0.41-7.01 0.25-2.32 0.65-4.59 1.16-6.74 1.75-13.1 5.44-25.8 10.97-37.74 1.86-4.01 6.61-5.76 10.62-3.9 4.01 1.86 5.76 6.61 3.9 10.62-4.91 10.6-8.16 21.89-9.68 33.54-0.04 0.31-0.1 0.62-0.17 0.92-0.4 1.58-0.7 3.29-0.89 5.09-0.21 1.84-0.32 3.85-0.32 6.02 0 0.53-0.05 1.06-0.16 1.58-0.43 2.13-0.75 4.4-0.96 6.76-0.22 2.36-0.33 4.67-0.33 6.9 0 47.94 18.37 80.37 56.15 99.14 39.7 19.74 83.71 35.77 130.82 47.66 3.56 0.9 7.12 1.73 10.6 2.47 3.46 0.75 7.01 1.63 10.55 2.63 3.82 0.96 7.64 1.92 11.47 2.87 3.88 0.98 7.74 1.94 11.61 2.9 0.16 0.04 0.31 0.08 0.47 0.13 8.87 2.78 16.14 6.81 21.6 11.98 5.43 5.15 9.15 10.77 11.06 16.73 0.67 1.52 1.16 3.21 1.49 5.15 0.32 1.95 0.48 3.85 0.48 5.71v2.18c0 0.31-0.02 0.63-0.06 0.94-1.23 10.39-7.25 19.88-17.88 28.21-10.35 8.11-23.61 12.22-39.4 12.22-2.75 0-5.57-0.13-8.37-0.4-2.42-0.22-4.75-0.33-6.87-0.33-0.39 0-0.78-0.03-1.17-0.09-14.08-2.08-27.57-7.1-40.08-14.92-11.93-7.46-20.57-19.47-25.74-35.76l-133.84 0.66c1.92 51.13 22.64 86.87 63.18 109.1 33.08 18.14 69.81 29.55 109.18 33.92a8 8 0 0 1 7.12 7.95v54.78h52.86v-54.11c0-4.1 3.1-7.54 7.19-7.96 39.89-4.07 77.3-17.09 111.2-38.67 41.21-26.25 61.24-62.73 61.24-111.52v-6.31c-2.35-41.72-17.86-72.18-47.41-93.1-30.25-21.4-71.95-37.26-123.93-47.16-1.36-0.06-2.71-0.25-4.01-0.59-1.16-0.29-2.32-0.69-3.46-1.19-22.32-4.42-42.89-10.49-61.14-18.04-21.33-8.81-32.15-21.19-32.15-36.78 0-0.85 0.14-1.69 0.4-2.5 0.34-1.02 0.69-1.98 1.06-2.86 0.04-1.05 0.28-2.09 0.72-3.05v-0.3c0-0.86 0.14-1.71 0.41-2.52 2.72-8.2 8.99-14.15 18.62-17.69 8.14-2.97 17.12-4.48 26.7-4.48 2.62 0 5.33 0.13 8.04 0.4 2.62 0.27 5.46 0.66 8.49 1.16 13.52 2.08 26.37 6.85 38.12 14.16 10.68 6.65 17.64 15.27 20.74 25.67l132.32 0.65c-7.99-49.29-28.39-83.51-60.73-101.81-29.51-16.69-61.6-27.23-95.38-31.33a8.004 8.004 0 0 1-7.04-7.94v-50.67h-52.86v48.33c0 4.32-3.43 7.86-7.74 8-24.11 0.78-45.82 4.21-64.53 10.2a7.998 7.998 0 0 1-10.06-5.18 7.998 7.998 0 0 1 5.18-10.06c18.08-5.79 38.62-9.35 61.15-10.61v-48.68c0-4.42 3.58-8 8-8h68.86c4.42 0 8 3.58 8 8v51.67c33.31 4.91 65 15.77 94.3 32.34 38.91 22.02 62.47 63.33 70.03 122.78 0.29 2.29-0.42 4.59-1.95 6.31a7.995 7.995 0 0 1-6.03 2.7l-148.02-0.73c-4-0.02-7.38-3-7.89-6.97-1.13-8.7-5.98-15.59-14.8-21.09-9.9-6.16-20.73-10.18-32.18-11.94-2.8-0.46-5.33-0.8-7.58-1.04-2.15-0.21-4.33-0.32-6.43-0.32-7.71 0-14.84 1.18-21.2 3.5-5.77 2.12-7.76 4.95-8.53 6.65 0 1.23-0.23 2.45-0.73 3.81a8.154 8.154 0 0 1-0.84 3.39c-0.14 0.28-0.33 0.69-0.55 1.27 0.69 7.98 8.15 14.96 22.21 20.77 17.54 7.26 37.41 13.08 59.07 17.32 0.72 0.14 1.42 0.38 2.08 0.71 0.42 0.21 0.81 0.36 1.19 0.46l0.1 0.03c0.72 0.19 1.58 0.09 2.39 0.25 54.55 10.32 98.58 27.12 130.84 49.94 33.38 23.63 51.6 59.13 54.16 105.5 0.01 0.15 0.01 0.29 0.01 0.44v6.53c0 53.95-23.09 96.01-68.64 125.02-33.98 21.64-71.28 35.17-110.98 40.27v54.98c-0.03 4.41-3.61 8-8.03 8z" fill="" /></svg>